<svg width="49" height="22" viewBox="0 0 49 22" fill="none" xmlns="http://www.w3.org/2000/svg">
<g clip-path="url(#clip0_492_1529)">
<path d="M14.9377 12.2536C16.4115 12.2536 17.6215 13.4636 17.6215 14.9374C17.6 16.4121 16.4123 17.5999 14.9377 17.5999C13.4639 17.5999 12.2539 16.3899 12.2539 14.9161V13.6837H9.74637V14.9161C9.74637 16.3899 8.53637 17.5999 7.06259 17.5999C5.5879 17.5999 4.40015 16.4122 4.40015 14.9374C4.40015 13.4636 5.61015 12.2536 7.08393 12.2536H8.31628V9.74607H7.08393C5.6101 9.74607 4.40015 8.53607 4.40015 7.06229C4.40015 5.58761 5.58779 4.39985 7.06259 4.39985C8.53641 4.39985 9.74637 5.60985 9.74637 7.08363V8.31599H12.2539V7.08363C12.2539 5.60981 13.4639 4.39985 14.9377 4.39985C16.4124 4.39985 17.6001 5.5875 17.6001 7.06229C17.6001 8.53612 16.3901 9.74607 14.9164 9.74607H13.684V12.2536H14.9377ZM13.6839 14.9374C13.6839 15.6198 14.2339 16.1698 14.9162 16.1698C15.5986 16.1698 16.1486 15.6198 16.1486 14.9374C16.1486 14.2551 15.5986 13.7051 14.9162 13.7051H13.6839V14.9374ZM8.31632 7.06207C8.31632 6.37972 7.76632 5.82972 7.08397 5.82972C6.40162 5.82972 5.85162 6.37972 5.85162 7.06207C5.85162 7.74443 6.40162 8.29443 7.08397 8.29443H8.31632V7.06207ZM8.31632 13.6836H7.08397C6.40162 13.6836 5.85162 14.2336 5.85162 14.916C5.85162 15.5983 6.40162 16.1483 7.08397 16.1483C7.76632 16.1483 8.31632 15.5983 8.31632 14.916V13.6836ZM12.2539 9.74607H9.74632V12.2536H12.2539V9.74607ZM14.9377 8.31607C15.62 8.31607 16.17 7.76607 16.17 7.08372C16.17 6.40137 15.62 5.85137 14.9377 5.85137C14.2553 5.85137 13.7053 6.40137 13.7053 7.08372V8.31607H14.9377Z" fill="#475569"/>
<path d="M18.0176 21.45H3.98224C2.08989 21.45 0.549805 19.91 0.549805 18.0175V3.98129C0.549805 2.08894 2.0898 0.54885 3.98224 0.54885H18.0185C19.9108 0.54885 21.4509 2.08885 21.4509 3.98129L21.45 18.0175C21.45 19.9099 19.91 21.45 18.0176 21.45ZM20.0199 3.98239C20.0199 2.88239 19.1176 1.98004 18.0176 1.98004H3.98224C2.88224 1.98004 1.97989 2.88239 1.97989 3.98239V18.0177C1.97989 19.1177 2.88224 20.0201 3.98224 20.0201H18.0185C19.1185 20.0201 20.0208 19.1177 20.0208 18.0177L20.0199 3.98239Z" fill="#475569"/>
</g>
<g clip-path="url(#clip1_492_1529)">
<path d="M45.0176 21.45H30.9822C29.0899 21.45 27.5498 19.91 27.5498 18.0175V3.98129C27.5498 2.08894 29.0898 0.54885 30.9822 0.54885H45.0185C46.9108 0.54885 48.4509 2.08885 48.4509 3.98129L48.45 18.0175C48.45 19.9099 46.91 21.45 45.0176 21.45ZM47.0199 3.98239C47.0199 2.88239 46.1176 1.98004 45.0176 1.98004H30.9822C29.8822 1.98004 28.9799 2.88239 28.9799 3.98239V18.0177C28.9799 19.1177 29.8822 20.0201 30.9822 20.0201H45.0185C46.1185 20.0201 47.0208 19.1177 47.0208 18.0177L47.0199 3.98239Z" fill="#475569"/>
<path d="M34.0043 16V5.81818H35.8487V10.4964H35.973L39.9453 5.81818H42.1974L38.2599 10.3871L42.2322 16H40.0149L36.9773 11.6349L35.8487 12.9673V16H34.0043Z" fill="#475569"/>
</g>
<defs>
<clipPath id="clip0_492_1529">
<rect width="22" height="22" fill="white" transform="matrix(1 0 0 -1 0 22)"/>
</clipPath>
<clipPath id="clip1_492_1529">
<rect width="22" height="22" fill="white" transform="matrix(1 0 0 -1 27 22)"/>
</clipPath>
</defs>
</svg>
